<svg xmlns="http://www.w3.org/2000/svg" viewBox="0 0 152.79 145.71"><title>reptar head</title><path d="M147.67,93.64c-.19-3.85-.83-7.67-2.95-11a5,5,0,0,1-.75-3.73,67.86,67.86,0,0,0-1.42-27.51C139.13,39,131.63,30.67,118.62,28c-1.71-.36-3.56-.17-5.12-1-7.22-3.89-15.1-5.05-23.1-5.78-4-.36-3.94-.34-2.34-3.78a8.6,8.6,0,0,0,.69-1.87c.54-2.56-1-4.27-3.49-3.49-1.92.6-2.38-.17-3-1.67C81.11,7.76,79.74,5,76.36,5s-4.65,2.79-5.92,5.35a.78.78,0,0,0-.09.24c-.38,1.63-1.18,2-2.86,1.47-2.64-.77-4.29,1-3.48,3.66a50.81,50.81,0,0,0,2.24,5.06c-.69.1-1.17.19-1.66.23C55.76,21.73,47,22.73,39,27.12a6.09,6.09,0,0,1-1.94.39c-14.48,2.17-23.36,10.19-27,24.41-2.33,9-2.4,18.12-1.27,27.29a3.64,3.64,0,0,1-.38,2.86C6.31,85,5.58,88.46,5.28,92c-1.11,13,1.2,25.56,4,38.1a7.36,7.36,0,0,0,3.23,4.31,26.55,26.55,0,0,0,9.94,3.87c12.07,2.62,24.32,2.41,36.57,2.34,8,0,16-1,24-.44a245.68,245.68,0,0,0,32.22.1c7.33-.46,14.63-1.22,21.52-4,3.08-1.23,6-2.94,6.77-6.48C146.25,117.88,148.31,105.9,147.67,93.64ZM39.84,127.49a.62.62,0,0,0,.53.69A.62.62,0,0,1,39.84,127.49Zm27.1-112h0c2.14,4.36,4.6,6.18,9.14,6.13C71.54,21.66,69.08,19.84,66.94,15.48ZM132.36,48a1.36,1.36,0,0,1,.45.57,1.36,1.36,0,0,0-.45-.57Zm-1.77-3.29.09.13-.09-.13-.65-.78ZM104.5,36.76l.15-.13-.15.13Zm.24,33.82h0l-.64-.71ZM103.2,37.27l1.08-.47-1.08.47-.94.51ZM97.75,64.94l.54-.07-.54.07-1,.36Zm-5,1.21a1.56,1.56,0,0,1-.6-1.28,1.56,1.56,0,0,0,.6,1.28,1.93,1.93,0,0,1,.12.79A1.93,1.93,0,0,0,92.7,66.15Zm1-4.87-.36-.75c0-2.3,0-4.61,0-6.91l.37-.78-.37.78c0,2.3,0,4.61,0,6.91l.36.76.18,1.22Zm.22-9a.92.92,0,0,0-.07-.7c.14-.26.28-.53.43-.79-.15.26-.29.53-.43.79A.92.92,0,0,1,93.89,52.32Zm4.23,15.22L97,68h0l-1.18.76L96.94,68h0l1.15-.48,2.33-.12Zm2.15-2.21h0a2.14,2.14,0,0,0,.56.78A2.14,2.14,0,0,1,100.27,65.33Zm3.13.89h0l-.68-.55Zm.74,12h0l.08-.12-1.25.62h0l1.25-.62Zm.39,2.63.82-.5h0Zm1-3.95-.72.73.72-.73.88-1.61ZM107,69.28a1.26,1.26,0,0,1-.23-.13,1.26,1.26,0,0,0,.23.13h0Zm.76,0-.51,0,.51,0Zm-.4-30.81a2.85,2.85,0,0,1-1.33.42,2.85,2.85,0,0,0,1.33-.42l.5-.16.93-.15.18-.1-.18.1-.93.15Zm5.1,32.37a2.39,2.39,0,0,1-1.25.45,2.39,2.39,0,0,0,1.25-.45,3.83,3.83,0,0,0,2.28-1.8A3.83,3.83,0,0,1,112.49,70.88Zm2.51-33-4.5,0,4.5,0,.73.28Zm3,.51a2.82,2.82,0,0,1-1.7-.07,2.82,2.82,0,0,0,1.7.07l.8.46Zm1.28-2.09a2.59,2.59,0,0,1,.63.08,2.59,2.59,0,0,0-.63-.08Zm1.94,38.36a1.06,1.06,0,0,0,.47-.38h0A1.14,1.14,0,0,1,121.2,74.63Zm.29-34.78a4.66,4.66,0,0,1-2.07-.68,4.66,4.66,0,0,0,2.07.68l.87.59Zm1.16.85.56.32-.56-.32ZM127,44.38a.41.41,0,0,1-.25-.31.41.41,0,0,0,.25.31,1.3,1.3,0,0,1,.3.32A1.3,1.3,0,0,0,127,44.38ZM130.26,65l-.47.79.47-.79.39-1.33Zm.14-15.18c-.32-.66-.63-1.32-.94-2l.94,2,.34.72C130.62,50.33,130.51,50.09,130.4,49.85Zm.82,12.25h0c.23-1.81.49-3.61.54-5.43C131.71,58.49,131.45,60.29,131.22,62.1Zm-.15-16.51a.58.58,0,0,0,0-.1.58.58,0,0,1,0,.1,2,2,0,0,1,.85,1.11A2,2,0,0,0,131.07,45.59Zm1.32,20.77a4.45,4.45,0,0,1-.37,1.1,4.45,4.45,0,0,0,.37-1.1c.19-.37.37-.75.54-1.13C132.76,65.61,132.58,66,132.39,66.36Zm2-10.58a15.54,15.54,0,0,0-.06-1.68,15.54,15.54,0,0,1,.06,1.68v0Z" style="fill:#282929"/><path d="M100,145.71c-5.75,0-11.54-.2-17.33-.59a125.8,125.8,0,0,0-14.37.14c-3,.15-6.11.3-9.23.31h-1.7c-11.75.08-23.91.15-36-2.46a31.33,31.33,0,0,1-11.76-4.68,12.26,12.26,0,0,1-5.23-7.28C1.8,119.47-.92,105.81.3,91.53A25.1,25.1,0,0,1,3.85,79.9v-.08C2.52,69,3,59.45,5.23,50.67,9.4,34.49,19.87,25,36.36,22.56l.75-.09h0c7-3.76,14.4-5.17,21.94-6a7.85,7.85,0,0,1,1.87-7.42,7.41,7.41,0,0,1,5.66-2.19C68.05,4.06,70.67,0,76.33,0h0c5.67,0,8.37,4.06,9.75,6.87a7.29,7.29,0,0,1,5.25,1.87,8.11,8.11,0,0,1,2.28,7.76c7,.75,14.83,2.1,22.21,6.08a7.73,7.73,0,0,0,1.44.2,20.47,20.47,0,0,1,2.31.32c14.28,2.93,23.62,12,27.75,27a72.33,72.33,0,0,1,1.55,29.51,2.24,2.24,0,0,0,0,.31s0,0,0,0c2.94,4.6,3.54,9.59,3.74,13.42.69,13.55-1.76,26.55-4.26,37.49-1.52,6.7-7.51,9.11-9.77,10-7.84,3.15-16,3.89-23.07,4.34C110.44,145.55,105.24,145.71,100,145.71ZM77.68,135c1.88,0,3.78,0,5.69.18a241,241,0,0,0,31.56.1c6.28-.4,13.52-1,20-3.64,3.13-1.25,3.58-2.18,3.75-2.95,2.35-10.27,4.66-22.43,4-34.75h0c-.2-3.87-.87-6.5-2.17-8.55a10,10,0,0,1-1.49-7.1,64.52,64.52,0,0,0-.53-22.4L135,55.79l-5.64.34v-.42a1.21,1.21,0,0,0,0-.19c0-.33,0-.65-.05-1l8.68-.81c-.08-.33-.17-.67-.27-1a38.63,38.63,0,0,0-1.92-5.45l-.05,0a5.33,5.33,0,0,1-.53,1l0,.05-.08,0a5.07,5.07,0,0,1-1.87,1.6l-.29-.57-2.68,1.27,1-1.33-.91.42.92-.44.23-.32L128.2,50.5a3.38,3.38,0,0,0,.62,1l-2.6,1.24L124.94,50l2.12-1-1.64-1L125,49h0a5.35,5.35,0,0,1-2.88-3l-1.24-.76-.1.17-.56-.31.17-.31a9.84,9.84,0,0,1-3.35-1.2l.06-.1a8.91,8.91,0,0,1-2.14-.35l.07-.26-4.09,0-.08.07-1.69.27a7.37,7.37,0,0,1-3.09.72h0l0-2.44-.65.28-.73.4-4.79-8.78,1.35-.71,1.08-.47,1.45,3.37,1.82,2.12-1.45-1.28L106,40.88l0-2.6,1.83,2.14.06-.05-.24-.78-1.65-1.45,0-3.53-.3-.39,0,0h0l.28-.2v-.07H106l-.33,0h0a2.39,2.39,0,0,0-.7.18h0l1-.41,1.17-.31.93-.15h0l.71,4.37,1.79,3.11,0-7.87,5.42,0h0l1.3.49,1-.32-.59-.13c-.32-.06-.77-.11-1.25-.15a13.24,13.24,0,0,1-5.24-1.36c-6.05-3.27-12.84-4.44-21.17-5.2-2.77-.25-5.57-.51-7.14-3.23-1.19-2.06-.82-4-.08-5.84-1.85-.38-3.76-1.65-5.09-4.74A9.36,9.36,0,0,0,76.38,10h0a13.87,13.87,0,0,0-1.29,2.27A7,7,0,0,1,73,15.69a3.69,3.69,0,0,0,3,.92l.1,10h-.22a14.79,14.79,0,0,1-6.35-1.26l-3.17.46c-.52.08-1,.15-1.4.18-8.38.69-16.5,1.62-23.54,5.51a8.45,8.45,0,0,1-3.32.92l-.29,0c-12.48,1.87-19.76,8.46-22.92,20.72C13,60.71,12.6,69,13.77,78.6l0,.22A8.16,8.16,0,0,1,12.48,85c-1.24,1.73-1.93,4-2.22,7.39-1,11.56.86,23,3.94,36.57.1.44.72,1,1.23,1.32a22.06,22.06,0,0,0,8.12,3.08c11,2.38,22.05,2.31,33.78,2.23H59c2.9,0,5.9-.16,8.8-.29C71.05,135.12,74.34,135,77.68,135Zm49.51-86.63a2.85,2.85,0,0,0,.24.5l4.25-2v0Zm-3.54-.24.25.22.66-.84-.64-.39-.71.5h0a3.14,3.14,0,0,0,.42.48h0Zm6.21-2.71,1.27.11,1-1.7Zm-.08,0h0l.84-.58Zm-3.06-.26,1.64.14,2.25-1.9,1-.19h0a3.53,3.53,0,0,0-.14-.56l1-.86a22.92,22.92,0,0,0-11.87-8.06l-.12.4.73.41-1.71,3-.27.92v-.44l-.92,1.59.31,1,0,.07,0-.05.24.74a3,3,0,0,0,.41,0l0-1.9h0l2.45-4.5h0l0-.07.07,0,.07,0,1.15,0,2.09,1.43,0,0,.49.28-4.27,7.67,0,.52h-.27l-.13.23,7.88-3.94a5,5,0,0,0-2.55,3l2.43-.45Zm-5.29-3.29,0,1.11,3.27-5.86ZM115,40.05v2.79l2.6-9.36h-.11Zm-7.26.5,0,0Zm11.36-7.31.11.06v0ZM74.92,12.58Zm.31-.93,0,.13ZM39.53,133.11a5.6,5.6,0,0,1-4.69-5.55h0l5.66,0ZM107.1,85.17,105.78,83l-.24.08-.34.17h0l0-.08a5.2,5.2,0,0,1-2.37-.08l-6.32-1.79,3.45-5.68h0l.06-.09,2,1.24-1.23-2.47h0l.81-.41.41-.75-.91.83-.65-.72,6.55-6-.13-3H107v.1l.41,0h0l.18,2.34.21-.18.41.44-.07.13.08-.12v0h0l.22.24-.75.75.21,2.74,3.29-1.64,0-2.18,2,1.21,4.47-2.23-2.21,3.61L117.88,71l.15-.2L126.44,60a34.17,34.17,0,0,0,.32-3.47l10,.26v.08h0a49.19,49.19,0,0,1-.47,5.06l-.1.77-9.5-1.19v1l8.76,2.56-.32,1.09,2.39,1c-.13.29-.26.58-.41.87a8.31,8.31,0,0,1-.56,1.49l-.08.15-8.89-4.58a1,1,0,0,0-.09.22h0l.2-.82-1-.59V77.34l-2.14,1.07a5.88,5.88,0,0,1-1.41.83h0l-2.07-5h-4.3a8.7,8.7,0,0,1-2.15,1.2,7.06,7.06,0,0,1-3.22.87h0v-.24l-.87,1.43.38.21-1.21,2.21-1.21,1.23-.13-.13a5.21,5.21,0,0,1-1.67,1.56l1.21,2.12-.25.15-.09.06Zm9.64-10.92H121L119.28,70h0a3.88,3.88,0,0,0-1.37,1l1.14.7v0A9.31,9.31,0,0,1,116.74,74.25ZM102.14,73l.6.33,2-1L107,68.8v-.28Zm5-3.94.08,2,.17-.08-.17-2.1Zm0-.61v.19l.07-.1v-.15Zm-.07-1.73v.47l0,0Zm-9.83,6.66-2.92-.89-.92-.89L95.92,69l-1.21-1.92-2.53-.23-2.36,3.36h0A6.19,6.19,0,0,1,87.87,68h0a7.13,7.13,0,0,1-.73-2.68h0v-.06l6.11-.45-.15-.24,2.78-1.77-.2-.53-5.88.88-.63.3-.09-.19-.15,0-.14-.64-.46-1V52.46l.12-.25-.33-.6,1.75-3.18,4.9,2.67,3.44-1.88a6,6,0,0,1,.54,4.32l-.24-.06-.18.33v5.6l.19.41.3,2-.9.13.6.61,1.33-.07,0-2.12,3.62.11,1.27,2.71,1.09-1.36.68.55-6,7.44.13,2.64-1.53.11-.73.47-.08-.13Zm3.17-6.66.09,1.75,4.27-5.28a3.33,3.33,0,0,0-.81-.93h0l0,0h0l0,0h-.06Zm-12.58-.13a3.42,3.42,0,0,0,.19,1.4l3-1.16-3.2-.28Zm7.45-12.92h2.17l-1.35-.75-4.81-1.2Zm14.45,13.09h0l.64-.42.73-.21h0a1.29,1.29,0,0,0-.51.31h0A2.4,2.4,0,0,0,109.73,66.71Zm-.47-1.9a2.14,2.14,0,0,0-.37-.17l.37.16Zm22-22.88A4.61,4.61,0,0,0,129,39.8l.06,0-.08,0,.6.26.51.4c.13.1.26.22.39.33h0a6.93,6.93,0,0,1,.87,1h0Z" style="fill:#fff"/><path d="M66.25,20.78A50.81,50.81,0,0,1,64,15.72c-.81-2.63.84-4.43,3.48-3.66,1.68.49,2.48.16,2.86-1.47a.78.78,0,0,1,.09-.24C71.71,7.79,73,5,76.36,5s4.75,2.76,5.87,5.39c.65,1.5,1.11,2.27,3,1.67,2.47-.78,4,.93,3.49,3.49a8.6,8.6,0,0,1-.69,1.87c-1.6,3.44-1.61,3.42,2.34,3.78,8,.73,15.88,1.89,23.1,5.78,1.56.85,3.41.66,5.12,1,13,2.67,20.51,11,23.93,23.42A67.86,67.86,0,0,1,144,78.93a5,5,0,0,0,.75,3.73c2.12,3.31,2.76,7.13,2.95,11,.64,12.26-1.42,24.24-4.13,36.12-.81,3.54-3.69,5.25-6.77,6.48-6.89,2.77-14.19,3.53-21.52,4a245.68,245.68,0,0,1-32.22-.1c-8-.54-16,.4-24,.44-12.25.07-24.5.28-36.57-2.34a26.55,26.55,0,0,1-9.94-3.87,7.36,7.36,0,0,1-3.23-4.31c-2.84-12.54-5.15-25.15-4-38.1.3-3.49,1-7,3.15-9.88a3.64,3.64,0,0,0,.38-2.86C7.68,70,7.75,60.93,10.08,51.92c3.66-14.22,12.54-22.24,27-24.41A6.09,6.09,0,0,0,39,27.12c8-4.39,16.72-5.39,25.55-6.11C65.08,21,65.56,20.88,66.25,20.78ZM92.46,137.63a233.2,233.2,0,0,0,24.37-.4A67.92,67.92,0,0,0,135,133.9c3.55-1.27,5.81-3.39,6.5-7.4,1.16-6.81,2.56-13.59,3.11-20.48.49-6,.93-12.16-.73-18.13-1.46-5.26-2.84-6.21-8.28-6-.91,0-1.74,0-1.9-1.11s.56-1.48,1.44-1.71a9.9,9.9,0,0,1,4.46-.17c1.22.25,1.63-.16,1.76-1.34,1-9.79.8-19.5-2.65-28.85-3.18-8.63-8.91-14.89-18.06-17.16-4.67-1.16-9.18-2.6-13.71-4.21a63.91,63.91,0,0,0-27.57-3.21,40.63,40.63,0,0,1-6.24,0c-11.35-.62-22.46.29-32.76,5.74a6.3,6.3,0,0,1-2.41.53c-12.48,1.36-21,8.53-24.58,20.59-2.41,8.19-2.73,16.54-2.08,25,.18,2.26.58,3.64,3.27,2.85a5.13,5.13,0,0,1,2.23.09c1.12.2,2.61.28,2.37,1.91s-1.57,1.09-2.63,1c-3.68-.39-5.38.59-6.81,4A27.76,27.76,0,0,0,7.85,96c-.24,9.81,1.68,19.37,3.13,29,.84,5.58,3.89,8.34,9,9.57.88.22,1.76.49,2.65.7,11,2.47,22.15,2.64,33.31,2.39C69.15,137.41,82.37,136.57,92.46,137.63ZM66.94,15.48c2.85,5.81,6.27,7.11,14.44,5.49,1.74-.35,4-3.62,4.09-6.06-.4.17-.79.31-1.15.5-2.87,1.46-3,1.42-3.88-1.6A14.47,14.47,0,0,0,78.5,9.52C77,7.3,75.66,7.33,74.13,9.61A15,15,0,0,0,72,14.88c-.34,1.52-1.22,1.91-2.54,1.16C68.64,15.58,67.92,15,66.94,15.48Z" style="fill:#2c2a29"/><path d="M92.46,137.63c-10.09-1.06-23.31-.22-36.54.07-11.16.25-22.33.08-33.31-2.39-.89-.21-1.77-.48-2.65-.7-5.09-1.23-8.14-4-9-9.57-1.45-9.64-3.37-19.2-3.13-29A27.76,27.76,0,0,1,9.68,85.76c1.43-3.41,3.13-4.39,6.81-4,1.06.11,2.41.55,2.63-1s-1.25-1.71-2.37-1.91a5.13,5.13,0,0,0-2.23-.09c-2.69.79-3.09-.59-3.27-2.85-.65-8.46-.33-16.81,2.08-25,3.55-12.06,12.1-19.23,24.58-20.59a6.3,6.3,0,0,0,2.41-.53c10.3-5.45,21.41-6.36,32.76-5.74a40.63,40.63,0,0,0,6.24,0,63.91,63.91,0,0,1,27.57,3.21c4.53,1.61,9,3.05,13.71,4.21,9.15,2.27,14.88,8.53,18.06,17.16,3.45,9.35,3.68,19.06,2.65,28.85-.13,1.18-.54,1.59-1.76,1.34a9.9,9.9,0,0,0-4.46.17c-.88.23-1.59.69-1.44,1.71s1,1.14,1.9,1.11c5.44-.19,6.82.76,8.28,6,1.66,6,1.22,12.08.73,18.13-.55,6.89-1.95,13.67-3.11,20.48-.69,4-2.95,6.13-6.5,7.4a67.92,67.92,0,0,1-18.12,3.33A233.2,233.2,0,0,1,92.46,137.63ZM125.9,74.37l-.09.07.78-.58h.13l.06-.12,1-.92a11.38,11.38,0,0,0,3.53-4.45,3.43,3.43,0,0,0,1.09-2,17.94,17.94,0,0,0,2-9.54l0-1A14.37,14.37,0,0,0,133,49.27a1.77,1.77,0,0,0-.62-1.28v-.14l-.47-.69H132a2.23,2.23,0,0,0-1-1.58l0-.16-.5-.73-.65-.78-.63-.88a.22.22,0,0,0-.22-.28l-.81-.86a15.44,15.44,0,0,0-6.41-4.61l-1.09-.49-.1-.08-.12,0a1.62,1.62,0,0,0-1.3-.49c-.21-.16-.42-.26-.65,0-.15-.38-.47-.43-.82-.41a.34.34,0,0,0-.38-.07l-.51-.11a15,15,0,0,0-6.63-.32.49.49,0,0,0-.48,0,8.87,8.87,0,0,0-4,.88,1.54,1.54,0,0,0-1.3.49l-.12,0-.1.09-1.08.47-.94.51-.62.45.07-.09-1.13.62-.68.49a4.78,4.78,0,0,0-2.1,1.65l-1,.94a6.54,6.54,0,0,0-2.07,2.45,2.4,2.4,0,0,0-1,1.52A3.31,3.31,0,0,0,92.71,48a2,2,0,0,0-.65,1.46,1,1,0,0,0-.35,1,5.12,5.12,0,0,0-.81,2.82,17.61,17.61,0,0,0,.07,8l.28.74a3.27,3.27,0,0,0,.59,2.23l.35.63-.09-.09a1.58,1.58,0,0,0,.59,1.28c.44,1.15-.35,1.87-.91,2.67l-.46.51-.54.49a165.09,165.09,0,0,0-27-.1c-3,.24-4.21-1.69-3.08-4.54A22,22,0,1,0,19.1,63.25,21.69,21.69,0,0,0,39.6,79.06c3.17,0,6.21-.35,8.85,2a1.64,1.64,0,0,0,2.63-.24c.73-1.38-.42-1.88-1.45-2.34-1.67-.75-3.28-1.77-3.22-3.75.1-2.92,2.08-4.81,4.36-6.34,2-1.32,3.94-.94,5.84.29a13.44,13.44,0,0,1,4.93,6.14c.33.76.8,1.3,1.7,1.11a1.23,1.23,0,0,0,1-1.7c-.66-1.8.53-1.71,1.64-1.78a174.82,174.82,0,0,1,21,0c1.1.06,2.3,0,1.62,1.78a1.25,1.25,0,0,0,1,1.69c.88.2,1.34-.32,1.72-1.08.67-1.33,1.44-2.62,2.17-3.93l2.33-2.1L96.94,68h0l1.15-.48,2.33-.12,1.82.91h0l.48.36a.29.29,0,0,0,.29.18l.7.63.36.37.65.71,1.42,2.27.32,1.41,0,1.06-.88,1.61-.72.73-.72.59.08-.12-1.25.62-.19,0c-1.08.21-1.61.82-1.16,1.89s1.25,1,2.06.65a13.65,13.65,0,0,0,1.67-.93l-.06,0,.79-.55.13,0,.08-.11.54-.44,1-.67.22,0,.2-.06a18.65,18.65,0,0,0,10-.36l1-.31a14.53,14.53,0,0,0,6-3Zm16.44,29.77c0-6.22-.23-10.61-2.53-14.59-2.1-3.65-5.24-4.8-9.11-3.24a24.79,24.79,0,0,1-6.26,1.63,127.09,127.09,0,0,1-18.71.64c-15.31-.34-30.61-1.27-45.94-.37-6.4.37-12.82.48-19.23.4s-13.15,0-19.42-2.62c-2.77-1.18-5.6,0-7.5,2.5a11.92,11.92,0,0,0-2.2,4.73c-2.29,11.07-1,21.77,4.4,31.69,3.68,6.72,11,9.41,18.45,7.59a62.64,62.64,0,0,1,8.56-1.71,316.76,316.76,0,0,1,57.36-.84c5.47.44,11,.56,16.33,2.05,10.72,3,19-1.23,22.75-11.74A51.49,51.49,0,0,0,142.34,104.14ZM76.35,44c2.22.12,4.38.27,6.55.33,1.66.06,2.8-.53,1.68-2.34-.63-1,0-1.54.37-2.22a8.69,8.69,0,0,0,1.43-3.42c.13-1.58-.68-3.09-2.09-2.72-2.66.71-3-1.1-3.84-2.61-2.24-3.83-5.94-3.81-8.23,0a5.06,5.06,0,0,0-.57,1.11c-.38,1.27-.91,1.83-2.49,1.5-2.09-.43-3.34,1.11-2.76,3.2a18.72,18.72,0,0,0,1.47,3.15c.33.64.8,1.14.31,2-1,1.87.09,2.4,1.75,2.34C72.09,44.23,74.25,44.09,76.35,44ZM99,70.63a3.93,3.93,0,0,0-4,3.69,3.88,3.88,0,1,0,4-3.69ZM54,78.39A3.88,3.88,0,1,0,50,74.46,3.89,3.89,0,0,0,54,78.39Z" style="fill:#abce64"/><path d="M66.94,15.48c1-.47,1.7.1,2.5.56,1.32.75,2.2.36,2.54-1.16a15,15,0,0,1,2.15-5.27C75.66,7.33,77,7.3,78.5,9.52a14.47,14.47,0,0,1,1.94,4.29c.89,3,1,3.06,3.88,1.6.36-.19.75-.33,1.15-.5-.12,2.44-2.35,5.71-4.09,6.06C73.21,22.59,69.79,21.29,66.94,15.48Z" style="fill:#94f0ff"/><path d="M142.34,104.14a51.49,51.49,0,0,1-3.05,16.12c-3.79,10.51-12,14.73-22.75,11.74-5.34-1.49-10.86-1.61-16.33-2.05a316.76,316.76,0,0,0-57.36.84,62.64,62.64,0,0,0-8.56,1.71c-7.49,1.82-14.77-.87-18.45-7.59-5.44-9.92-6.69-20.62-4.4-31.69a11.92,11.92,0,0,1,2.2-4.73c1.9-2.49,4.73-3.68,7.5-2.5,6.27,2.66,12.87,2.53,19.42,2.62s12.83,0,19.23-.4c15.33-.9,30.63,0,45.94.37a127.09,127.09,0,0,0,18.71-.64,24.79,24.79,0,0,0,6.26-1.63c3.87-1.56,7-.41,9.11,3.24C142.11,93.53,142.38,97.92,142.34,104.14Zm-3-2.11a23.62,23.62,0,0,0-1.13-9.11c-.41-1.07-.77-2.59-1.94-2.65-1,0-.86,1.59-1.38,2.4a13,13,0,0,0-.55,1.39c-1.86,3.85-5.5,4.4-7.74.77-1.92-3.1-4.23-3.87-7.62-3.61-2.26.17-4,.52-5.11,2.69a9.89,9.89,0,0,1-1.85,2.34c-2.83,2.9-4.94,2.53-6.71-1.14-.18-.37-.32-.77-.5-1.14-.59-1.25-.91-2.87-2.83-2.6-2.36.33-5.25-1.39-6.9,1.83a11.91,11.91,0,0,1-3.37,4c-2,1.59-3.57,1.49-5-.63a19.11,19.11,0,0,1-1.9-3.78,2.86,2.86,0,0,0-3.06-2c-3.16.07-6.34.16-9.49,0-2.64-.17-4.31.57-4.89,3.32a7.61,7.61,0,0,1-1.24,2.44c-1.41,2.12-3,2.37-5,.79a14.88,14.88,0,0,1-3.69-4.36c-.33-.57-.57-1.42-1.26-1.45a39.91,39.91,0,0,0-6.47.05c-1.42.18-1.44,1.89-2,3-2.38,4.74-4.73,5-8,.71a5.79,5.79,0,0,1-.58-.82c-1.28-2.6-3.42-3.4-6.17-3.08a13.07,13.07,0,0,1-2.5,0,2.47,2.47,0,0,0-2.65,1.42,14,14,0,0,1-1.54,2.27c-2.69,3.36-5.9,3-7.84-.85-.3-.59-.46-1.25-.76-1.84s-.19-2-1.16-2-1.3,1.17-1.72,1.94A7.14,7.14,0,0,0,14.19,94c-2,9.62-.58,18.86,3.13,27.83.54,1.29,1.24,3,2.57,3.1s1.29-1.88,1.81-2.94c1.71-3.51,3.12-4.07,6.58-2.31a1.62,1.62,0,0,0,2-.16c6.67-4.92,14.33-7.39,22.41-8.49,6.62-.9,13.4-1.38,19.6,1.7,3,1.49,5.17,1.6,8.16.06,4.92-2.55,10.36-2.52,15.85-2.11,9.32.7,18,3.14,25.7,8.56,1.08.76,1.94,1.11,3.07.08,1.55-1.41,3-.85,4.46.36a8.13,8.13,0,0,1,1.86,3.2c.36.78.39,2,1.43,2.14s1.38-1.07,1.82-1.84C138.45,116.66,139.17,109.4,139.38,102ZM92.62,113.35a24.89,24.89,0,0,0-9.34,1.39c-1.33.48-3.15.68-3.67,1.9s1.42,1.76,2,2.79c0,.07.11.13.16.19a1.34,1.34,0,0,1,.19,1.82,1.37,1.37,0,0,1-2,.19,13.27,13.27,0,0,1-1.48-1.34,22.7,22.7,0,0,0-13.43-6.59A50.6,50.6,0,0,0,35,119.92c-4.27,2.35-4.24,2.4-2.14,6.8.11.22.22.45.34.67.5.87.54,2.19,2.15,1.91,1.43-.24,1.57-1.27,1.69-2.38a12.48,12.48,0,0,1,3.51-7.55c1.85-1.92,3.34-2,5,.11,1.27,1.64,2.27,3.49,3.41,5.22.74,1.12,1,2.75,3,2.51s3.85-.08,4.87-2.52A16.83,16.83,0,0,1,61,118.3c1.88-1.63,3.88-1.5,5.45.4A6.41,6.41,0,0,1,68,121.28c.91,4.36,3.59,4.94,7.72,5.06,5,.15,8.07-.71,9.66-6,1.22-4.08,5-4.23,7.62-.69,1.36,1.88,2.44,4,3.62,6s5.26,2.18,6.51.29c1.43-2.15,2.69-4.41,4.24-6.47s2.93-2,4.77-.18a12.23,12.23,0,0,1,3.68,8.24c.07,1.12.69,1.58,1.7,1.81s1.44-.47,1.8-1.27a16.84,16.84,0,0,1,1.56-3.12c1.29-1.76.62-2.67-1-3.73C111.58,115.74,102.32,113.79,92.62,113.35ZM29.28,130.23c.48-.42,2.29.72,1.53-1.15A23.36,23.36,0,0,0,27,122.47c-.81-.94-1.62-1.22-2.27.13-2.74,5.73-2.93,6.05,3,7.38C28.23,130.09,28.72,130.14,29.28,130.23Zm93.4,0c3-.28,5.64-.33,6.92-2.13,1.08-1.53-.6-3.56-1.36-5.28a2.26,2.26,0,0,0-.11-.22c-.66-1.24-1.42-1.21-2.3-.21a31.8,31.8,0,0,0-3.6,6C121.45,129.83,121.74,130.41,122.68,130.27Zm-28.79-3.59a30.09,30.09,0,0,0-3.5-5.75c-.94-1.15-1.77-1.17-2.42.21-.76,1.64-1.43,3.31-2.21,5.12l6.21.42C92.46,126.71,93,126.68,93.89,126.68ZM41,128.15c.58-.07,1.16-.16,1.73-.22,4.59-.51,4.62-.52,2.15-4.34-.55-.84-.82-2.43-1.93-2.24s-1.74,1.49-2.15,2.59a25.21,25.21,0,0,0-.86,3.12C39.69,127.92,40,128.33,41,128.15Zm70.29-.08c1.46.49,1.87-.15,1.54-1.62a10,10,0,0,0-1.56-3.9c-1-1.37-1.63-1.76-2.74,0C105.43,127.51,105.35,127.46,111.24,128.07Zm-52.18-1.31,3.14-.2c5.29-.41,5.45-.73,2.66-5.31-.08-.14-.16-.29-.25-.43-.58-.9-1.26-1-2-.17A18.94,18.94,0,0,0,59.06,126.76ZM25.51,90.54c-1.37-.49-2.74-1-4.13-1.46-.44-.15-1.08-.42-1.36-.23-.57.4-.17,1.07,0,1.57.52,1.45.71,3.53,2.41,3.69,1.5.13,2.12-1.81,2.94-3A2.45,2.45,0,0,0,25.51,90.54Zm101.68,0c.86,1.48,1.46,3.71,3.3,3.48,1.64-.21,1.86-2.48,2.36-4,.4-1.2,0-1.54-1.15-1.1C130.24,89.48,128.78,90,127.19,90.58ZM63,90.81c-.87.58-2.26-.57-2.72.93-.2.65,2.56,3.56,3.05,3.31a3.85,3.85,0,0,0,1.89-3.28C65.27,90.05,63.65,91.39,63,90.81Zm30,.54c-2-.38-4-1.15-5.29.08-.62.6.53,3.21,1.66,3.39C91,95.08,91.71,93,92.93,91.35Zm-47.38.25c-1.53.17-3.49-.91-4.23.37-.48.84,1.13,2.68,2.3,2.74C45.16,94.79,45,92.82,45.55,91.6ZM112,91.29c-1.91.56-3.61-.68-4.66.76-.41.54.49,2.54,1.27,2.63C110.46,94.89,111,93.12,112,91.29Z" style="fill:#282929"/><path d="M93.43,70.87c-.73,1.31-1.5,2.6-2.17,3.93-.38.76-.84,1.28-1.72,1.08a1.25,1.25,0,0,1-1-1.69c.68-1.8-.52-1.72-1.62-1.78a174.82,174.82,0,0,0-21,0c-1.11.07-2.3,0-1.64,1.78a1.23,1.23,0,0,1-1,1.7c-.9.19-1.37-.35-1.7-1.11a13.44,13.44,0,0,0-4.93-6.14c-1.9-1.23-3.87-1.61-5.84-.29-2.28,1.53-4.26,3.42-4.36,6.34-.06,2,1.55,3,3.22,3.75,1,.46,2.18,1,1.45,2.34a1.64,1.64,0,0,1-2.63.24c-2.64-2.31-5.68-1.94-8.85-2A21.69,21.69,0,0,1,19.1,63.25a22,22,0,1,1,41.64,1.93c-1.13,2.85.13,4.78,3.08,4.54a165.09,165.09,0,0,1,27,.1A3.06,3.06,0,0,0,93.43,70.87ZM45.22,69c1-.18,1.45-1.07,2.11-1.68,2.29-2.11,5-3.27,8-2.33,1.87.58,2.47.07,3-1.58a19.16,19.16,0,0,0-28.7-22.27,19.17,19.17,0,0,0,9.59,35.11c4.09.18,5.34-1.39,4.51-5.68C43.24,69.11,44.65,69.44,45.22,69Z" style="fill:#2c2a29"/><path d="M93.43,70.87a3.06,3.06,0,0,1-2.65-1.05l.54-.49.46-.51c.56-.8,1.35-1.52.91-2.67a1.35,1.35,0,0,0-.59-1.28l.09.09c-.11-.21-.23-.42-.35-.63a3.27,3.27,0,0,1-.59-2.23c-.09-.25-.19-.49-.28-.74a17.61,17.61,0,0,1-.07-8c1.31-.64.74-1.82.81-2.82a1,1,0,0,1,.35-1A1.93,1.93,0,0,0,92.71,48a3.31,3.31,0,0,1,1.06-2.19c.85-.16,1-.79,1-1.52a6.54,6.54,0,0,1,2.07-2.45,1.16,1.16,0,0,0,1-.94,4.78,4.78,0,0,1,2.1-1.65l.39.58,0,2.38L99,43.38c-1,0-1.38.74-1.57,1.6l.07-.09a1.15,1.15,0,0,0-.65,1l-.32.49a1.21,1.21,0,0,0-.66,1.07c-.53,1.13-1,2.27-1.57,3.4l-.43.79a1.3,1.3,0,0,1-.13,1.22l-.37.78v6.91l.36.75.18,1.23a2.75,2.75,0,0,0,1,2.29l1.06.81a.64.64,0,0,0,.89-.32h0l1-.36.54-.07a2.89,2.89,0,0,0,2,.46c.64,1.35,1.37,1.08,2.15.13a.26.26,0,0,1,.3.21l.68.55v-.17h.17c-.07.26,0,.37.23.17a2.47,2.47,0,0,1,1.47,1.16,1.18,1.18,0,0,0,1,1l0,0a1.25,1.25,0,0,0,.77.91h.14l.11.09,1,1.49c.29,1.5,1.43,2.84.85,4.5,0,.05-.08.12-.07.16a2.19,2.19,0,0,0,.16.3l.51.41c.29.42.63.52,1,.12a27.74,27.74,0,0,0,9.73-1.58,1.41,1.41,0,0,0,1.24-.58l-.07.08.58-.5a24.06,24.06,0,0,0,7.54-7.94l.47-.79.39-1.33a2.43,2.43,0,0,0,.13-.38h0l.44-1.22a37.57,37.57,0,0,0,.5-7.26c.54-.5.34-.81-.25-1l-.38-2c.36-.11.9-.17.72-.67-.09-.22-.68-.26-1-.38a.16.16,0,0,1,0-.25l-.34-.72-1.15-2.44c.12-1.12,1-1.52,1.84-2l0,.16a1.28,1.28,0,0,0,1,1.58h-.14l.47.69V48a1.42,1.42,0,0,0,.62,1.28,14.37,14.37,0,0,1,1.38,6.51c-.48.37-.5.72,0,1a17.94,17.94,0,0,1-2,9.54c-1.53,0-1.29,1-1.09,2a11.38,11.38,0,0,1-3.53,4.45,1.13,1.13,0,0,0-1,.92l-.06.12h-.13l-.78.58.09-.07-.59.53a14.53,14.53,0,0,1-6,3c-.08-.28-.09-.69-.5-.61s-.46.55-.54.92a18.62,18.62,0,0,1-10,.36.28.28,0,0,0-.43,0l-1,.67-.54.44-.08.11-.13,0-.79.55.06,0c-1.14-.08-2.37,0-2.57-1.61l.19,0a1.35,1.35,0,0,0,1.25-.62l-.08.12.72-.59.72-.73c.47.61,1,.62,1.41,0s.23-1.26-.53-1.61l0-1.06a.93.93,0,0,0-.32-1.41c-.47-.76-1-1.52-1.43-2.27l-.64-.71-.36-.37-.7-.63a.29.29,0,0,1-.29-.18l-.48-.36h0c-.27-1-1-1-1.82-.91l-2.33.12c-.55-.24-1.2-.69-1.15.48h0c-.61-.09-1.42-.49-1.18.76Z" style="fill:#282929"/><path d="M76.35,44c-2.1.12-4.26.26-6.42.34-1.66.06-2.79-.47-1.75-2.34.49-.89,0-1.39-.31-2a18.72,18.72,0,0,1-1.47-3.15c-.58-2.09.67-3.63,2.76-3.2,1.58.33,2.11-.23,2.49-1.5A5.06,5.06,0,0,1,72.22,31c2.29-3.8,6-3.82,8.23,0,.89,1.51,1.18,3.32,3.84,2.61,1.41-.37,2.22,1.14,2.09,2.72A8.69,8.69,0,0,1,85,39.74c-.37.68-1,1.19-.37,2.22,1.12,1.81,0,2.4-1.68,2.34C80.73,44.24,78.57,44.09,76.35,44Zm7.24-7.28c-3.44,1.26-3.5,1.23-4.41-1.44a8.11,8.11,0,0,0-.36-.93c-.57-1.27-.94-3.16-2.41-3.18-1.67,0-2.15,1.91-2.54,3.3-.68,2.38-1.28,4.53-4.26,2.39,1.37,5.75,5.89,4.32,9.67,4.31C81.77,41.14,81.89,38.52,83.59,36.69Z" style="fill:#2c2a29"/><path d="M99.9,39.25l.68-.49a1.2,1.2,0,0,0,1.13-.62l-.07.09.62-.45.94-.51c.53.23,1,.3,1.08-.47l.1-.09.12,0,1.3-.49a8.87,8.87,0,0,1,4-.88l.48,0a15,15,0,0,1,6.63.32l.51.11a.34.34,0,0,1,.38.07l.82.41c.23-.25.44-.15.65,0l1.3.49.12,0,.1.08,1.09.49a15.44,15.44,0,0,1,6.41,4.61,1.19,1.19,0,0,0,.81.86.22.22,0,0,1,.22.28l.63.88.65.78a5.52,5.52,0,0,1-2.79.62l-.51-.62a1.3,1.3,0,0,0-.3-.32.41.41,0,0,1-.25-.31l-.65-.7L123.21,41l-.23-.59-.33.27a.28.28,0,0,1-.29-.26l-.87-.59a6,6,0,0,1-2.71-1l-.8-.46a3.7,3.7,0,0,1-2.25-.23l-.73-.28-4.5,0a2.31,2.31,0,0,0-1.68.32l-.93.15-.5.16a2.28,2.28,0,0,1-1.81.34l-.78.56-1,.43c-.72,0-1.35.11-1.56.94l-1.35.92c-.23-.61.42-1.53-.63-1.87Z" style="fill:#282929"/><path d="M99,70.63a3.9,3.9,0,0,1,3.8,3.84A3.88,3.88,0,1,1,95,74.32,3.93,3.93,0,0,1,99,70.63Z" style="fill:#282929"/><path d="M54,78.39a3.88,3.88,0,1,1,3.81-3.81A3.87,3.87,0,0,1,54,78.39Z" style="fill:#282929"/><path d="M102.78,78.77c.2,1.58,1.43,1.53,2.57,1.61a13.65,13.65,0,0,1-1.67.93c-.81.3-1.67.3-2.06-.65S101.7,79,102.78,78.77Z" style="fill:#2c2a29"/><path d="M127.8,45.32a5.52,5.52,0,0,0,2.79-.62l.5.73c-.84.46-1.72.86-1.84,2Z" style="fill:#2c2a29"/><path d="M106.46,75.32c.76.35,1,.92.53,1.61s-.94.61-1.41,0Z" style="fill:#2c2a29"/><path d="M91.71,50.5c-.07,1,.5,2.18-.81,2.82A5.12,5.12,0,0,1,91.71,50.5Z" style="fill:#2c2a29"/><path d="M131.3,68.37c-.2-1-.44-2,1.09-2A3.43,3.43,0,0,1,131.3,68.37Z" style="fill:#2c2a29"/><path d="M94.77,44.29c0,.73-.15,1.36-1,1.52A2.4,2.4,0,0,1,94.77,44.29Z" style="fill:#2c2a29"/><path d="M118.28,78.26c.08-.37.11-.83.54-.92s.42.33.5.61Z" style="fill:#2c2a29"/><path d="M100.45,67.42c.8-.08,1.55-.07,1.82.91Z" style="fill:#2c2a29"/><path d="M132,47.17a1.28,1.28,0,0,1-1-1.58A2.23,2.23,0,0,1,132,47.17Z" style="fill:#2c2a29"/><path d="M134.41,56.82c-.55-.32-.53-.67,0-1Z" style="fill:#2c2a29"/><path d="M95.76,68.77c-.24-1.25.57-.85,1.18-.76Z" style="fill:#2c2a29"/><path d="M126.78,73.74a1.13,1.13,0,0,1,1-.92Z" style="fill:#2c2a29"/><path d="M106.17,72.85a.93.93,0,0,1,.32,1.41Z" style="fill:#2c2a29"/><path d="M97.8,40.9a1.16,1.16,0,0,1-1,.94Z" style="fill:#2c2a29"/><path d="M97,68c0-1.17.6-.72,1.15-.48Z" style="fill:#2c2a29"/><path d="M104.28,36.8c-.1.77-.55.7-1.08.47Z" style="fill:#2c2a29"/><path d="M92.1,64.87a1.35,1.35,0,0,1,.59,1.28A1.58,1.58,0,0,1,92.1,64.87Z" style="fill:#2c2a29"/><path d="M105.8,36.27l-1.3.49A1.54,1.54,0,0,1,105.8,36.27Z" style="fill:#2c2a29"/><path d="M120.56,36.76l-1.3-.49A1.62,1.62,0,0,1,120.56,36.76Z" style="fill:#2c2a29"/><path d="M121.87,37.29l-1.09-.49Z" style="fill:#2c2a29"/><path d="M101.71,38.14a1.2,1.2,0,0,1-1.13.62Z" style="fill:#2c2a29"/><path d="M129.09,42.76a1.19,1.19,0,0,1-.81-.86Z" style="fill:#2c2a29"/><path d="M104.22,78.13a1.35,1.35,0,0,1-1.25.62Z" style="fill:#2c2a29"/><path d="M92.71,48a1.93,1.93,0,0,1-.65,1.46A2,2,0,0,1,92.71,48Z" style="fill:#2c2a29"/><path d="M133,49.27a1.42,1.42,0,0,1-.62-1.28A1.77,1.77,0,0,1,133,49.27Z" style="fill:#2c2a29"/><path d="M104.1,69.87l.64.71Z" style="fill:#2c2a29"/><path d="M132.37,47.85l-.47-.69Z" style="fill:#2c2a29"/><path d="M125.81,74.44l.78-.58Z" style="fill:#2c2a29"/><path d="M125.31,74.9l.59-.53Z" style="fill:#2c2a29"/><path d="M103,68.87l.7.63Z" style="fill:#2c2a29"/><path d="M91.78,68.82l-.46.51Z" style="fill:#2c2a29"/><path d="M104.86,77.66l-.72.59Z" style="fill:#2c2a29"/><path d="M107.81,78.66a.28.28,0,0,1,.43,0l-.21.06Z" style="fill:#2c2a29"/><path d="M129.94,43.92l-.63-.88Z" style="fill:#2c2a29"/><path d="M106.29,79.77l.54-.44Z" style="fill:#2c2a29"/><path d="M105.29,80.4l.79-.55Z" style="fill:#2c2a29"/><path d="M102.27,68.33l.48.36Z" style="fill:#2c2a29"/><path d="M91,61.36c.09.25.19.49.28.74C91.16,61.86,91.06,61.61,91,61.36Z" style="fill:#2c2a29"/><path d="M91.84,64.33c.12.21.24.42.35.63C92.08,64.75,92,64.54,91.84,64.33Z" style="fill:#2c2a29"/><path d="M102.26,37.78l-.62.45Z" style="fill:#2c2a29"/><path d="M118.61,36.26l-.82-.41C118.14,35.83,118.46,35.88,118.61,36.26Z" style="fill:#2c2a29"/><path d="M117.41,35.78l-.51-.11Z" style="fill:#2c2a29"/><path d="M110.27,35.35l-.48,0A.49.49,0,0,1,110.27,35.35Z" style="fill:#2c2a29"/><path d="M139.38,102c-.21,7.37-.93,14.63-4.73,21.19-.44.77-.79,1.93-1.82,1.84s-1.07-1.36-1.43-2.14a8.13,8.13,0,0,0-1.86-3.2c-1.41-1.21-2.91-1.77-4.46-.36-1.13,1-2,.68-3.07-.08-7.7-5.42-16.38-7.86-25.7-8.56-5.49-.41-10.93-.44-15.85,2.11-3,1.54-5.19,1.43-8.16-.06-6.2-3.08-13-2.6-19.6-1.7-8.08,1.1-15.74,3.57-22.41,8.49a1.62,1.62,0,0,1-2,.16c-3.46-1.76-4.87-1.2-6.58,2.31-.52,1.06-.46,3-1.81,2.94s-2-1.81-2.57-3.1c-3.71-9-5.17-18.21-3.13-27.83a7.14,7.14,0,0,1,.61-1.88c.42-.77.71-2,1.72-1.94s.79,1.31,1.16,2,.46,1.25.76,1.84c1.94,3.86,5.15,4.21,7.84.85a14,14,0,0,0,1.54-2.27,2.47,2.47,0,0,1,2.65-1.42,13.07,13.07,0,0,0,2.5,0c2.75-.32,4.89.48,6.17,3.08a5.79,5.79,0,0,0,.58.82c3.26,4.27,5.61,4,8-.71.53-1.07.55-2.78,2-3a39.91,39.91,0,0,1,6.47-.05c.69,0,.93.88,1.26,1.45a14.88,14.88,0,0,0,3.69,4.36c2,1.58,3.63,1.33,5-.79A7.61,7.61,0,0,0,67.38,94c.58-2.75,2.25-3.49,4.89-3.32,3.15.2,6.33.11,9.49,0a2.86,2.86,0,0,1,3.06,2,19.11,19.11,0,0,0,1.9,3.78c1.46,2.12,3,2.22,5,.63a11.91,11.91,0,0,0,3.37-4c1.65-3.22,4.54-1.5,6.9-1.83,1.92-.27,2.24,1.35,2.83,2.6.18.37.32.77.5,1.14,1.77,3.67,3.88,4,6.71,1.14a9.89,9.89,0,0,0,1.85-2.34c1.09-2.17,2.85-2.52,5.11-2.69,3.39-.26,5.7.51,7.62,3.61,2.24,3.63,5.88,3.08,7.74-.77a13,13,0,0,1,.55-1.39c.52-.81.37-2.45,1.38-2.4,1.17.06,1.53,1.58,1.94,2.65A23.62,23.62,0,0,1,139.38,102Z" style="fill:#394181"/><path d="M92.62,113.35c9.7.44,19,2.39,27.25,7.83,1.6,1.06,2.27,2,1,3.73a16.84,16.84,0,0,0-1.56,3.12c-.36.8-.69,1.52-1.8,1.27s-1.63-.69-1.7-1.81a12.23,12.23,0,0,0-3.68-8.24c-1.84-1.78-3.23-1.87-4.77.18s-2.81,4.32-4.24,6.47c-1.25,1.89-5.36,1.67-6.51-.29s-2.26-4.1-3.62-6c-2.58-3.54-6.4-3.39-7.62.69-1.59,5.31-4.64,6.17-9.66,6-4.13-.12-6.81-.7-7.72-5.06a6.41,6.41,0,0,0-1.48-2.58c-1.57-1.9-3.57-2-5.45-.4a16.83,16.83,0,0,0-4.28,6.39c-1,2.44-2.93,2.27-4.87,2.52s-2.24-1.39-3-2.51c-1.14-1.73-2.14-3.58-3.41-5.22-1.62-2.11-3.11-2-5-.11A12.48,12.48,0,0,0,37,126.92c-.12,1.11-.26,2.14-1.69,2.38-1.61.28-1.65-1-2.15-1.91-.12-.22-.23-.45-.34-.67-2.1-4.4-2.13-4.45,2.14-6.8a50.6,50.6,0,0,1,30.09-6.22,22.7,22.7,0,0,1,13.43,6.59A13.27,13.27,0,0,0,80,121.63a1.37,1.37,0,0,0,2-.19,1.34,1.34,0,0,0-.19-1.82c0-.06-.11-.12-.16-.19-.62-1-2.57-1.57-2-2.79s2.34-1.42,3.67-1.9A24.89,24.89,0,0,1,92.62,113.35Z" style="fill:#5d6cae"/><path d="M29.28,130.23c-.56-.09-1.05-.14-1.54-.25-6-1.33-5.79-1.65-3-7.38.65-1.35,1.46-1.07,2.27-.13a23.36,23.36,0,0,1,3.85,6.61C31.57,131,29.76,129.81,29.28,130.23Z" style="fill:#eaead6"/><path d="M122.68,130.27c-.94.14-1.23-.44-.45-1.87a31.8,31.8,0,0,1,3.6-6c.88-1,1.64-1,2.3.21a2.26,2.26,0,0,1,.11.22c.76,1.72,2.44,3.75,1.36,5.28C128.32,129.94,125.64,130,122.68,130.27Z" style="fill:#eaead6"/><path d="M93.89,126.68c-.93,0-1.43,0-1.92,0l-6.21-.42c.78-1.81,1.45-3.48,2.21-5.12.65-1.38,1.48-1.36,2.42-.21A30.09,30.09,0,0,1,93.89,126.68Z" style="fill:#eaead6"/><path d="M41,128.15c-.91.18-1.26-.23-1.06-1.09a25.21,25.21,0,0,1,.86-3.12c.41-1.1,1.12-2.41,2.15-2.59s1.38,1.4,1.93,2.24c2.47,3.82,2.44,3.83-2.15,4.34C42.11,128,41.53,128.08,41,128.15Z" style="fill:#eaead6"/><path d="M111.24,128.07c-5.89-.61-5.81-.56-2.76-5.49,1.11-1.79,1.74-1.4,2.74,0a10,10,0,0,1,1.56,3.9C113.11,127.92,112.7,128.56,111.24,128.07Z" style="fill:#eaead6"/><path d="M59.06,126.76a18.94,18.94,0,0,1,3.59-6.11c.7-.85,1.38-.73,2,.17.09.14.17.29.25.43,2.79,4.58,2.63,4.9-2.66,5.31Z" style="fill:#eaead6"/><path d="M25.51,90.54a2.45,2.45,0,0,1-.13.56c-.82,1.2-1.44,3.14-2.94,3-1.7-.16-1.89-2.24-2.41-3.69-.18-.5-.58-1.17,0-1.57.28-.19.92.08,1.36.23C22.77,89.54,24.14,90.05,25.51,90.54Z" style="fill:#eaead6"/><path d="M127.19,90.58c1.59-.58,3.05-1.1,4.51-1.65,1.17-.44,1.55-.1,1.15,1.1-.5,1.55-.72,3.82-2.36,4C128.65,94.29,128.05,92.06,127.19,90.58Z" style="fill:#eaead6"/><path d="M63,90.81c.7.58,2.32-.76,2.22,1a3.85,3.85,0,0,1-1.89,3.28c-.49.25-3.25-2.66-3.05-3.31C60.69,90.24,62.08,91.39,63,90.81Z" style="fill:#eaead6"/><path d="M92.93,91.35C91.71,93,91,95.08,89.3,94.82,88.17,94.64,87,92,87.64,91.43,88.92,90.2,90.93,91,92.93,91.35Z" style="fill:#eaead6"/><path d="M45.55,91.6c-.58,1.22-.39,3.19-1.93,3.11-1.17-.06-2.78-1.9-2.3-2.74C42.06,90.69,44,91.77,45.55,91.6Z" style="fill:#eaead6"/><path d="M112,91.29c-1.08,1.83-1.58,3.6-3.39,3.39-.78-.09-1.68-2.09-1.27-2.63C108.43,90.61,110.13,91.85,112,91.29Z" style="fill:#eaead6"/><path d="M43.77,70.57c.83,4.29-.42,5.86-4.51,5.68A19.17,19.17,0,1,1,52.11,42a19.38,19.38,0,0,1,6.26,21.38c-.57,1.65-1.17,2.16-3,1.58-3-.94-5.71.22-8,2.33-.66.61-1.1,1.5-2.11,1.68-.09-.22-.28-.45-.25-.64,1.21-6.93.79-13.89.33-20.84-.14-2.07-.74-4.12-3.14-4.53s-3.77,1.3-4.72,3.28a15.51,15.51,0,0,0-.77,2.1c-1.33,4.29-1.21,8.69-.86,13.09a17.51,17.51,0,0,0,1.95,7.16C39.19,71.21,41.06,71.78,43.77,70.57Z" style="fill:#da743a"/><path d="M43.77,70.57c-2.71,1.21-4.58.64-6-1.95a17.51,17.51,0,0,1-1.95-7.16c-.35-4.4-.47-8.8.86-13.09a15.51,15.51,0,0,1,.77-2.1c1-2,2.24-3.7,4.72-3.28s3,2.46,3.14,4.53c.46,6.95.88,13.91-.33,20.84,0,.19.16.42.25.64C44.65,69.44,43.24,69.11,43.77,70.57Z" style="fill:#282929"/><path d="M127.8,45.32l1.45,2.09c.38.82.76,1.63,1.15,2.44.11.24.22.48.34.72a.16.16,0,0,0,0,.25l.31,1,.38,2,.25,1a37.57,37.57,0,0,1-.5,7.26l-.44,1.22h0a.28.28,0,0,0-.13.38L130.26,65l-.47.79a24.06,24.06,0,0,1-7.54,7.94l-.58.5.07-.08-1.24.58a27.74,27.74,0,0,1-9.73,1.58l-1-.12-.51-.41a.74.74,0,0,0-.09-.46c.58-1.66-.56-3-.85-4.5h1.49l.1.09.1-.08a2,2,0,0,0,2.5,0c1.72-.49,2.48-1.9,3-3.41a31.13,31.13,0,0,0,.42-19.64c-1-3.44-3.05-5.21-5.17-4.91s-3.41,2.32-3.45,6.2c0,6.74-.53,13.49.48,20.2l-.51,0-.11-.09H107l-.77-.91,0,0-1-1a2.47,2.47,0,0,0-1.47-1.16.21.21,0,0,0-.23-.17h-.17v.17c-.07-.38-.35-.49-.68-.55a.26.26,0,0,0-.3-.21,2.33,2.33,0,0,0-1.66-.56.66.66,0,0,0-.48-.05l-2,0-.54.07-1,.36h0l-.89.32-1.06-.81a4,4,0,0,0-1-2.29l-.18-1.22-.36-.76c0-2.3,0-4.61,0-6.91l.37-.78a1.3,1.3,0,0,0,.13-1.22c.14-.26.28-.53.43-.79.52-1.13,1-2.27,1.57-3.4l.66-1.07.32-.49.65-1-.07.09A3.26,3.26,0,0,0,99,43.38l1.31-1.16.66-.52,1.35-.92,1.56-.94,1-.43.78-.56a2.28,2.28,0,0,0,1.81-.34l.5-.16.93-.15a2.47,2.47,0,0,0,1.68-.32l4.5,0,.73.28a3.7,3.7,0,0,0,2.25.23l.8.46a6,6,0,0,0,2.71,1l.87.59a.28.28,0,0,0,.29.26l.56.32,2.88,2.35.65.7a.41.41,0,0,0,.25.31.36.36,0,0,0,.3.32Z" style="fill:#da743a"/><path d="M100.76,64.9a2.33,2.33,0,0,1,1.66.56c-.78,1-1.51,1.22-2.15-.13l0,0Z" style="fill:#2c2a29"/><path d="M109.79,70.86H108.3l-1-1.49.51,0A2.59,2.59,0,0,1,109.79,70.86Z" style="fill:#2c2a29"/><path d="M100.92,41.7l-.66.52,0-2.39C101.34,40.17,100.69,41.09,100.92,41.7Z" style="fill:#2c2a29"/><path d="M131.09,51.87l-.31-1c.35.12.94.16,1,.38C132,51.7,131.45,51.76,131.09,51.87Z" style="fill:#2c2a29"/><path d="M99,43.38A3.26,3.26,0,0,1,97.38,45C97.57,44.12,97.93,43.42,99,43.38Z" style="fill:#2c2a29"/><path d="M93.85,62.51a4,4,0,0,1,1,2.29A2.75,2.75,0,0,1,93.85,62.51Z" style="fill:#2c2a29"/><path d="M131.72,54.84l-.25-1C132.06,54,132.26,54.34,131.72,54.84Z" style="fill:#2c2a29"/><path d="M98.29,64.87l2,0c0,.15,0,.31,0,.46l0,0A2.89,2.89,0,0,1,98.29,64.87Z" style="fill:#2c2a29"/><path d="M105.27,67.37l1,1A1.18,1.18,0,0,1,105.27,67.37Z" style="fill:#2c2a29"/><path d="M96.76,65.3l1-.36Z" style="fill:#2c2a29"/><path d="M95.88,65.61l.89-.32A.64.64,0,0,1,95.88,65.61Z" style="fill:#2c2a29"/><path d="M130.78,63.32l.44-1.22Z" style="fill:#2c2a29"/><path d="M106.26,68.37l.77.91A1.25,1.25,0,0,1,106.26,68.37Z" style="fill:#2c2a29"/><path d="M109.75,76.22l1,.12C110.38,76.74,110,76.64,109.75,76.22Z" style="fill:#2c2a29"/><path d="M97.45,44.89l-.65,1A1.15,1.15,0,0,1,97.45,44.89Z" style="fill:#2c2a29"/><path d="M120.5,74.76l1.24-.58A1.41,1.41,0,0,1,120.5,74.76Z" style="fill:#2c2a29"/><path d="M96.48,46.36l-.66,1.07A1.21,1.21,0,0,1,96.48,46.36Z" style="fill:#2c2a29"/><path d="M130.74,50.57c-.12-.24-.23-.48-.34-.72C130.51,50.09,130.62,50.33,130.74,50.57Z" style="fill:#2c2a29"/><path d="M94.25,50.83c-.15.26-.29.53-.43.79C94,51.36,94.1,51.09,94.25,50.83Z" style="fill:#2c2a29"/><path d="M93.69,52.84l-.37.78Z" style="fill:#2c2a29"/><path d="M121.67,74.26l.58-.5Z" style="fill:#2c2a29"/><path d="M93.31,60.53l.36.76Z" style="fill:#2c2a29"/><path d="M109.15,75.35a.74.74,0,0,1,.09.46,2.19,2.19,0,0,1-.16-.3S109.13,75.4,109.15,75.35Z" style="fill:#2c2a29"/><path d="M130.65,63.7a.28.28,0,0,1,.13-.38A2.43,2.43,0,0,1,130.65,63.7Z" style="fill:#2c2a29"/><path d="M103.57,66a.21.21,0,0,1,.23.17C103.54,66.41,103.5,66.3,103.57,66Z" style="fill:#2c2a29"/><path d="M102.72,65.67c.33.06.61.17.68.55Z" style="fill:#2c2a29"/><path d="M129.79,65.82l.47-.79Z" style="fill:#2c2a29"/><path d="M83.59,36.69c-1.7,1.83-1.82,4.45-4.31,4.45-3.78,0-8.3,1.44-9.67-4.31,3,2.14,3.58,0,4.26-2.39.39-1.39.87-3.33,2.54-3.3,1.47,0,1.84,1.91,2.41,3.18a8.11,8.11,0,0,1,.36.93C80.09,37.92,80.15,38,83.59,36.69Z" style="fill:#94f0ff"/><path d="M103.83,39.84l-1.56.94C102.48,40,103.11,39.82,103.83,39.84Z" style="fill:#2c2a29"/><path d="M110.5,37.88a2.47,2.47,0,0,1-1.68.32A2.31,2.31,0,0,1,110.5,37.88Z" style="fill:#2c2a29"/><path d="M123.21,41l-.56-.32.33-.27Z" style="fill:#2c2a29"/><path d="M127.29,44.7a.36.36,0,0,1-.3-.32A1.3,1.3,0,0,1,127.29,44.7Z" style="fill:#2c2a29"/><path d="M126.74,44.07l-.65-.7Z" style="fill:#2c2a29"/><path d="M122.36,40.44l-.87-.59Z" style="fill:#2c2a29"/><path d="M105.58,38.85l-.78.56Z" style="fill:#2c2a29"/><path d="M118.78,38.82l-.8-.46Z" style="fill:#2c2a29"/><path d="M107.89,38.35l-.5.16Z" style="fill:#2c2a29"/><path d="M115.73,38.13l-.73-.28Z" style="fill:#2c2a29"/><path d="M109.79,70.86a2.59,2.59,0,0,0-2-1.54c-1-6.71-.53-13.46-.48-20.2,0-3.88,1.29-5.89,3.45-6.2s4.18,1.47,5.17,4.91a31.13,31.13,0,0,1-.42,19.64c-.54,1.51-1.3,2.92-3,3.41H110l-.1.08Z" style="fill:#282929"/><path d="M110,70.87h2.5A2,2,0,0,1,110,70.87Z" style="fill:#2c2a29"/><path d="M100.29,65.31c0-.15,0-.31,0-.46a.66.66,0,0,1,.48.05Z" style="fill:#282929"/></svg>